<mxfile host="app.diagrams.net" agent="Mozilla/5.0 (X11; Linux x86_64) AppleWebKit/537.36 (KHTML, like Gecko) Chrome/131.0.0.0 Safari/537.36" version="26.0.4">
  <diagram name="Diagram" id="5lQXk88iUCLeMpKwrVkv">
    <mxGraphModel dx="1434" dy="736" grid="1" gridSize="10" guides="1" tooltips="1" connect="1" arrows="1" fold="1" page="1" pageScale="1" pageWidth="1169" pageHeight="827" math="0" shadow="0">
      <root>
        <mxCell id="0" />
        <mxCell id="1" parent="0" />
        <mxCell id="vs-8lvcjq1GL2Ei7vuz--1" value="Cloud" style="points=[[0,0],[0.25,0],[0.5,0],[0.75,0],[1,0],[1,0.25],[1,0.5],[1,0.75],[1,1],[0.75,1],[0.5,1],[0.25,1],[0,1],[0,0.75],[0,0.5],[0,0.25]];outlineConnect=0;gradientColor=none;html=1;whiteSpace=wrap;fontSize=12;fontStyle=0;container=1;pointerEvents=0;collapsible=0;recursiveResize=0;shape=mxgraph.aws4.group;grIcon=mxgraph.aws4.group_aws_cloud;strokeColor=#232F3E;fillColor=none;verticalAlign=top;align=left;spacingLeft=30;fontColor=#232F3E;dashed=0;" vertex="1" parent="1">
          <mxGeometry x="20" y="20" width="1120" height="780" as="geometry" />
        </mxCell>
        <mxCell id="vs-8lvcjq1GL2Ei7vuz--3" value="&lt;font color=&quot;#8c4fff&quot;&gt;VPC&lt;/font&gt;&lt;br&gt;&lt;div&gt;&lt;font style=&quot;color: rgb(140, 79, 255);&quot;&gt;10.34.96.0/20&lt;/font&gt;&lt;/div&gt;" style="points=[[0,0],[0.25,0],[0.5,0],[0.75,0],[1,0],[1,0.25],[1,0.5],[1,0.75],[1,1],[0.75,1],[0.5,1],[0.25,1],[0,1],[0,0.75],[0,0.5],[0,0.25]];outlineConnect=0;gradientColor=none;html=1;whiteSpace=wrap;fontSize=12;fontStyle=0;container=1;pointerEvents=0;collapsible=0;recursiveResize=0;shape=mxgraph.aws4.group;grIcon=mxgraph.aws4.group_vpc2;strokeColor=#8C4FFF;fillColor=none;verticalAlign=top;align=left;spacingLeft=30;fontColor=#AAB7B8;dashed=0;" vertex="1" parent="vs-8lvcjq1GL2Ei7vuz--1">
          <mxGeometry x="20" y="60" width="1080" height="700" as="geometry" />
        </mxCell>
        <mxCell id="vs-8lvcjq1GL2Ei7vuz--6" value="Compute Instance&lt;br&gt;10.34.96.2" style="points=[[0,0],[0.25,0],[0.5,0],[0.75,0],[1,0],[1,0.25],[1,0.5],[1,0.75],[1,1],[0.75,1],[0.5,1],[0.25,1],[0,1],[0,0.75],[0,0.5],[0,0.25]];outlineConnect=0;gradientColor=none;html=1;whiteSpace=wrap;fontSize=12;fontStyle=0;container=1;pointerEvents=0;collapsible=0;recursiveResize=0;shape=mxgraph.aws4.group;grIcon=mxgraph.aws4.group_ec2_instance_contents;strokeColor=#D86613;fillColor=none;verticalAlign=top;align=left;spacingLeft=30;fontColor=#D86613;dashed=0;" vertex="1" parent="vs-8lvcjq1GL2Ei7vuz--3">
          <mxGeometry x="20" y="60" width="1040" height="380" as="geometry" />
        </mxCell>
        <mxCell id="vs-8lvcjq1GL2Ei7vuz--26" value="*.flos.live" style="fillColor=none;strokeColor=#5A6C86;dashed=1;verticalAlign=top;fontStyle=0;fontColor=#5A6C86;whiteSpace=wrap;html=1;" vertex="1" parent="vs-8lvcjq1GL2Ei7vuz--6">
          <mxGeometry x="420" y="180" width="600" height="140" as="geometry" />
        </mxCell>
        <mxCell id="vs-8lvcjq1GL2Ei7vuz--25" value="*.flos.im" style="fillColor=none;strokeColor=#5A6C86;dashed=1;verticalAlign=top;fontStyle=0;fontColor=#5A6C86;whiteSpace=wrap;html=1;" vertex="1" parent="vs-8lvcjq1GL2Ei7vuz--6">
          <mxGeometry x="420" y="20" width="520" height="140" as="geometry" />
        </mxCell>
        <mxCell id="vs-8lvcjq1GL2Ei7vuz--46" style="edgeStyle=orthogonalEdgeStyle;rounded=0;orthogonalLoop=1;jettySize=auto;html=1;entryX=0.5;entryY=0;entryDx=0;entryDy=0;strokeColor=#FF6666;" edge="1" parent="vs-8lvcjq1GL2Ei7vuz--6" source="vs-8lvcjq1GL2Ei7vuz--21" target="vs-8lvcjq1GL2Ei7vuz--30">
          <mxGeometry relative="1" as="geometry">
            <Array as="points">
              <mxPoint x="380" y="170" />
              <mxPoint x="380" y="50" />
              <mxPoint x="520" y="50" />
            </Array>
          </mxGeometry>
        </mxCell>
        <mxCell id="vs-8lvcjq1GL2Ei7vuz--47" style="edgeStyle=orthogonalEdgeStyle;rounded=0;orthogonalLoop=1;jettySize=auto;html=1;entryX=0.5;entryY=0;entryDx=0;entryDy=0;strokeColor=#FF6666;" edge="1" parent="vs-8lvcjq1GL2Ei7vuz--6" source="vs-8lvcjq1GL2Ei7vuz--21" target="vs-8lvcjq1GL2Ei7vuz--31">
          <mxGeometry relative="1" as="geometry">
            <Array as="points">
              <mxPoint x="380" y="170" />
              <mxPoint x="380" y="50" />
              <mxPoint x="680" y="50" />
            </Array>
          </mxGeometry>
        </mxCell>
        <mxCell id="vs-8lvcjq1GL2Ei7vuz--48" style="edgeStyle=orthogonalEdgeStyle;rounded=0;orthogonalLoop=1;jettySize=auto;html=1;entryX=0.5;entryY=0;entryDx=0;entryDy=0;strokeColor=#FF6666;" edge="1" parent="vs-8lvcjq1GL2Ei7vuz--6" source="vs-8lvcjq1GL2Ei7vuz--21" target="vs-8lvcjq1GL2Ei7vuz--32">
          <mxGeometry relative="1" as="geometry">
            <Array as="points">
              <mxPoint x="380" y="170" />
              <mxPoint x="380" y="50" />
              <mxPoint x="840" y="50" />
            </Array>
          </mxGeometry>
        </mxCell>
        <mxCell id="vs-8lvcjq1GL2Ei7vuz--55" style="edgeStyle=orthogonalEdgeStyle;rounded=0;orthogonalLoop=1;jettySize=auto;html=1;entryX=0.5;entryY=0;entryDx=0;entryDy=0;strokeColor=#FF6666;" edge="1" parent="vs-8lvcjq1GL2Ei7vuz--6" source="vs-8lvcjq1GL2Ei7vuz--21" target="vs-8lvcjq1GL2Ei7vuz--33">
          <mxGeometry relative="1" as="geometry">
            <Array as="points">
              <mxPoint x="380" y="170" />
              <mxPoint x="380" y="210" />
              <mxPoint x="480" y="210" />
            </Array>
          </mxGeometry>
        </mxCell>
        <mxCell id="vs-8lvcjq1GL2Ei7vuz--57" style="edgeStyle=orthogonalEdgeStyle;rounded=0;orthogonalLoop=1;jettySize=auto;html=1;entryX=0.5;entryY=0;entryDx=0;entryDy=0;strokeColor=#FF6666;" edge="1" parent="vs-8lvcjq1GL2Ei7vuz--6" source="vs-8lvcjq1GL2Ei7vuz--21" target="vs-8lvcjq1GL2Ei7vuz--34">
          <mxGeometry relative="1" as="geometry">
            <Array as="points">
              <mxPoint x="380" y="170" />
              <mxPoint x="380" y="210" />
              <mxPoint x="580" y="210" />
            </Array>
          </mxGeometry>
        </mxCell>
        <mxCell id="vs-8lvcjq1GL2Ei7vuz--58" style="edgeStyle=orthogonalEdgeStyle;rounded=0;orthogonalLoop=1;jettySize=auto;html=1;entryX=0.5;entryY=0;entryDx=0;entryDy=0;strokeColor=#FF6666;" edge="1" parent="vs-8lvcjq1GL2Ei7vuz--6" source="vs-8lvcjq1GL2Ei7vuz--21" target="vs-8lvcjq1GL2Ei7vuz--35">
          <mxGeometry relative="1" as="geometry">
            <Array as="points">
              <mxPoint x="380" y="170" />
              <mxPoint x="380" y="210" />
              <mxPoint x="680" y="210" />
            </Array>
          </mxGeometry>
        </mxCell>
        <mxCell id="vs-8lvcjq1GL2Ei7vuz--59" style="edgeStyle=orthogonalEdgeStyle;rounded=0;orthogonalLoop=1;jettySize=auto;html=1;entryX=0.5;entryY=0;entryDx=0;entryDy=0;strokeColor=#FF6666;" edge="1" parent="vs-8lvcjq1GL2Ei7vuz--6" source="vs-8lvcjq1GL2Ei7vuz--21" target="vs-8lvcjq1GL2Ei7vuz--36">
          <mxGeometry relative="1" as="geometry">
            <Array as="points">
              <mxPoint x="380" y="170" />
              <mxPoint x="380" y="210" />
              <mxPoint x="860" y="210" />
            </Array>
          </mxGeometry>
        </mxCell>
        <mxCell id="vs-8lvcjq1GL2Ei7vuz--60" style="edgeStyle=orthogonalEdgeStyle;rounded=0;orthogonalLoop=1;jettySize=auto;html=1;entryX=0.5;entryY=0;entryDx=0;entryDy=0;strokeColor=#FF6666;" edge="1" parent="vs-8lvcjq1GL2Ei7vuz--6" source="vs-8lvcjq1GL2Ei7vuz--21" target="vs-8lvcjq1GL2Ei7vuz--54">
          <mxGeometry relative="1" as="geometry">
            <Array as="points">
              <mxPoint x="380" y="170" />
              <mxPoint x="380" y="210" />
              <mxPoint x="960" y="210" />
            </Array>
          </mxGeometry>
        </mxCell>
        <mxCell id="vs-8lvcjq1GL2Ei7vuz--61" value="&lt;font style=&quot;color: rgb(255, 102, 102);&quot;&gt;TLS&lt;/font&gt;" style="edgeLabel;html=1;align=center;verticalAlign=middle;resizable=0;points=[];" vertex="1" connectable="0" parent="vs-8lvcjq1GL2Ei7vuz--60">
          <mxGeometry x="-0.8206" y="3" relative="1" as="geometry">
            <mxPoint x="-11" y="3" as="offset" />
          </mxGeometry>
        </mxCell>
        <mxCell id="vs-8lvcjq1GL2Ei7vuz--21" value="Certbot&lt;br&gt;(Let&#39;s Encrypt)" style="sketch=0;verticalLabelPosition=bottom;sketch=0;aspect=fixed;html=1;verticalAlign=top;strokeColor=none;fillColor=#000000;align=center;outlineConnect=0;pointerEvents=1;shape=mxgraph.citrix2.authentication_cert;" vertex="1" parent="vs-8lvcjq1GL2Ei7vuz--6">
          <mxGeometry x="220" y="150" width="40" height="40" as="geometry" />
        </mxCell>
        <mxCell id="vs-8lvcjq1GL2Ei7vuz--23" style="edgeStyle=orthogonalEdgeStyle;rounded=0;orthogonalLoop=1;jettySize=auto;html=1;strokeColor=#FF6666;" edge="1" parent="vs-8lvcjq1GL2Ei7vuz--6" source="vs-8lvcjq1GL2Ei7vuz--22" target="vs-8lvcjq1GL2Ei7vuz--21">
          <mxGeometry relative="1" as="geometry" />
        </mxCell>
        <mxCell id="vs-8lvcjq1GL2Ei7vuz--24" value="Proxy" style="edgeLabel;html=1;align=center;verticalAlign=middle;resizable=0;points=[];fontColor=#FF6666;" vertex="1" connectable="0" parent="vs-8lvcjq1GL2Ei7vuz--23">
          <mxGeometry x="-0.1833" y="-1" relative="1" as="geometry">
            <mxPoint x="11" y="-1" as="offset" />
          </mxGeometry>
        </mxCell>
        <mxCell id="vs-8lvcjq1GL2Ei7vuz--22" value="Nginx" style="sketch=0;outlineConnect=0;fontColor=#232F3E;gradientColor=none;fillColor=#8C4FFF;strokeColor=none;dashed=0;verticalLabelPosition=bottom;verticalAlign=top;align=center;html=1;fontSize=12;fontStyle=0;aspect=fixed;pointerEvents=1;shape=mxgraph.aws4.internet_gateway;" vertex="1" parent="vs-8lvcjq1GL2Ei7vuz--6">
          <mxGeometry x="60" y="150" width="40" height="40" as="geometry" />
        </mxCell>
        <mxCell id="vs-8lvcjq1GL2Ei7vuz--30" value="flos.im&lt;br&gt;:8080" style="shape=image;html=1;verticalAlign=top;verticalLabelPosition=bottom;labelBackgroundColor=#ffffff;imageAspect=0;aspect=fixed;image=https://cdn0.iconfinder.com/data/icons/social-media-2104/24/social_media_social_media_logo_docker-128.png" vertex="1" parent="vs-8lvcjq1GL2Ei7vuz--6">
          <mxGeometry x="500" y="70" width="40" height="40" as="geometry" />
        </mxCell>
        <mxCell id="vs-8lvcjq1GL2Ei7vuz--31" value="my.flos.im&lt;br&gt;:8081" style="shape=image;html=1;verticalAlign=top;verticalLabelPosition=bottom;labelBackgroundColor=#ffffff;imageAspect=0;aspect=fixed;image=https://cdn0.iconfinder.com/data/icons/social-media-2104/24/social_media_social_media_logo_docker-128.png" vertex="1" parent="vs-8lvcjq1GL2Ei7vuz--6">
          <mxGeometry x="660" y="70" width="40" height="40" as="geometry" />
        </mxCell>
        <mxCell id="vs-8lvcjq1GL2Ei7vuz--32" value="blog.flos.im&lt;div&gt;:8082&lt;/div&gt;" style="shape=image;html=1;verticalAlign=top;verticalLabelPosition=bottom;labelBackgroundColor=#ffffff;imageAspect=0;aspect=fixed;image=https://cdn0.iconfinder.com/data/icons/social-media-2104/24/social_media_social_media_logo_docker-128.png" vertex="1" parent="vs-8lvcjq1GL2Ei7vuz--6">
          <mxGeometry x="820" y="70" width="40" height="40" as="geometry" />
        </mxCell>
        <mxCell id="vs-8lvcjq1GL2Ei7vuz--33" value="flos.live&lt;div&gt;:8090&lt;/div&gt;" style="shape=image;html=1;verticalAlign=top;verticalLabelPosition=bottom;labelBackgroundColor=#ffffff;imageAspect=0;aspect=fixed;image=https://cdn0.iconfinder.com/data/icons/social-media-2104/24/social_media_social_media_logo_docker-128.png" vertex="1" parent="vs-8lvcjq1GL2Ei7vuz--6">
          <mxGeometry x="460" y="230" width="40" height="40" as="geometry" />
        </mxCell>
        <mxCell id="vs-8lvcjq1GL2Ei7vuz--34" value="api.flos.live&lt;div&gt;:8091&lt;/div&gt;" style="shape=image;html=1;verticalAlign=top;verticalLabelPosition=bottom;labelBackgroundColor=#ffffff;imageAspect=0;aspect=fixed;image=https://cdn0.iconfinder.com/data/icons/social-media-2104/24/social_media_social_media_logo_docker-128.png" vertex="1" parent="vs-8lvcjq1GL2Ei7vuz--6">
          <mxGeometry x="560" y="230" width="40" height="40" as="geometry" />
        </mxCell>
        <mxCell id="vs-8lvcjq1GL2Ei7vuz--102" style="edgeStyle=orthogonalEdgeStyle;rounded=0;orthogonalLoop=1;jettySize=auto;html=1;" edge="1" parent="vs-8lvcjq1GL2Ei7vuz--6" source="vs-8lvcjq1GL2Ei7vuz--35" target="vs-8lvcjq1GL2Ei7vuz--96">
          <mxGeometry relative="1" as="geometry" />
        </mxCell>
        <mxCell id="vs-8lvcjq1GL2Ei7vuz--35" value="drive.flos.live&lt;div&gt;:8092&lt;/div&gt;" style="shape=image;html=1;verticalAlign=top;verticalLabelPosition=bottom;labelBackgroundColor=#ffffff;imageAspect=0;aspect=fixed;image=https://cdn0.iconfinder.com/data/icons/social-media-2104/24/social_media_social_media_logo_docker-128.png" vertex="1" parent="vs-8lvcjq1GL2Ei7vuz--6">
          <mxGeometry x="660" y="230" width="40" height="40" as="geometry" />
        </mxCell>
        <mxCell id="vs-8lvcjq1GL2Ei7vuz--36" value="sekai.flos.live&lt;div&gt;:8093&lt;/div&gt;" style="shape=image;html=1;verticalAlign=top;verticalLabelPosition=bottom;labelBackgroundColor=#ffffff;imageAspect=0;aspect=fixed;image=https://cdn0.iconfinder.com/data/icons/social-media-2104/24/social_media_social_media_logo_docker-128.png" vertex="1" parent="vs-8lvcjq1GL2Ei7vuz--6">
          <mxGeometry x="840" y="234" width="40" height="40" as="geometry" />
        </mxCell>
        <mxCell id="vs-8lvcjq1GL2Ei7vuz--54" value="wiki.flos.live&lt;div&gt;:8094&lt;/div&gt;" style="shape=image;html=1;verticalAlign=top;verticalLabelPosition=bottom;labelBackgroundColor=#ffffff;imageAspect=0;aspect=fixed;image=https://cdn0.iconfinder.com/data/icons/social-media-2104/24/social_media_social_media_logo_docker-128.png" vertex="1" parent="vs-8lvcjq1GL2Ei7vuz--6">
          <mxGeometry x="940" y="234" width="40" height="40" as="geometry" />
        </mxCell>
        <mxCell id="vs-8lvcjq1GL2Ei7vuz--95" value="API DB" style="verticalLabelPosition=bottom;verticalAlign=top;html=1;shape=mxgraph.flowchart.on-page_reference;" vertex="1" parent="vs-8lvcjq1GL2Ei7vuz--6">
          <mxGeometry x="520" y="330" width="20" height="20" as="geometry" />
        </mxCell>
        <mxCell id="vs-8lvcjq1GL2Ei7vuz--96" value="Drive DB" style="verticalLabelPosition=bottom;verticalAlign=top;html=1;shape=mxgraph.flowchart.on-page_reference;" vertex="1" parent="vs-8lvcjq1GL2Ei7vuz--6">
          <mxGeometry x="620" y="330" width="20" height="20" as="geometry" />
        </mxCell>
        <mxCell id="vs-8lvcjq1GL2Ei7vuz--97" value="Sekai DB" style="verticalLabelPosition=bottom;verticalAlign=top;html=1;shape=mxgraph.flowchart.on-page_reference;" vertex="1" parent="vs-8lvcjq1GL2Ei7vuz--6">
          <mxGeometry x="800" y="330" width="20" height="20" as="geometry" />
        </mxCell>
        <mxCell id="vs-8lvcjq1GL2Ei7vuz--98" value="Wiki DB" style="verticalLabelPosition=bottom;verticalAlign=top;html=1;shape=mxgraph.flowchart.on-page_reference;" vertex="1" parent="vs-8lvcjq1GL2Ei7vuz--6">
          <mxGeometry x="900" y="330" width="20" height="20" as="geometry" />
        </mxCell>
        <mxCell id="vs-8lvcjq1GL2Ei7vuz--101" style="edgeStyle=orthogonalEdgeStyle;rounded=0;orthogonalLoop=1;jettySize=auto;html=1;entryX=0.5;entryY=0;entryDx=0;entryDy=0;entryPerimeter=0;" edge="1" parent="vs-8lvcjq1GL2Ei7vuz--6" source="vs-8lvcjq1GL2Ei7vuz--34" target="vs-8lvcjq1GL2Ei7vuz--95">
          <mxGeometry relative="1" as="geometry" />
        </mxCell>
        <mxCell id="vs-8lvcjq1GL2Ei7vuz--103" style="edgeStyle=orthogonalEdgeStyle;rounded=0;orthogonalLoop=1;jettySize=auto;html=1;entryX=0.5;entryY=0;entryDx=0;entryDy=0;entryPerimeter=0;" edge="1" parent="vs-8lvcjq1GL2Ei7vuz--6" source="vs-8lvcjq1GL2Ei7vuz--36" target="vs-8lvcjq1GL2Ei7vuz--97">
          <mxGeometry relative="1" as="geometry" />
        </mxCell>
        <mxCell id="vs-8lvcjq1GL2Ei7vuz--104" style="edgeStyle=orthogonalEdgeStyle;rounded=0;orthogonalLoop=1;jettySize=auto;html=1;entryX=0.5;entryY=0;entryDx=0;entryDy=0;entryPerimeter=0;" edge="1" parent="vs-8lvcjq1GL2Ei7vuz--6" source="vs-8lvcjq1GL2Ei7vuz--54" target="vs-8lvcjq1GL2Ei7vuz--98">
          <mxGeometry relative="1" as="geometry" />
        </mxCell>
        <mxCell id="vs-8lvcjq1GL2Ei7vuz--105" value="Blog DB" style="verticalLabelPosition=bottom;verticalAlign=top;html=1;shape=mxgraph.flowchart.on-page_reference;" vertex="1" parent="vs-8lvcjq1GL2Ei7vuz--6">
          <mxGeometry x="980" y="80" width="20" height="20" as="geometry" />
        </mxCell>
        <mxCell id="vs-8lvcjq1GL2Ei7vuz--106" style="edgeStyle=orthogonalEdgeStyle;rounded=0;orthogonalLoop=1;jettySize=auto;html=1;entryX=0;entryY=0.5;entryDx=0;entryDy=0;entryPerimeter=0;" edge="1" parent="vs-8lvcjq1GL2Ei7vuz--6" source="vs-8lvcjq1GL2Ei7vuz--32" target="vs-8lvcjq1GL2Ei7vuz--105">
          <mxGeometry relative="1" as="geometry" />
        </mxCell>
        <mxCell id="vs-8lvcjq1GL2Ei7vuz--109" value="Drive S3" style="verticalLabelPosition=bottom;verticalAlign=top;html=1;shape=mxgraph.flowchart.on-page_reference;" vertex="1" parent="vs-8lvcjq1GL2Ei7vuz--6">
          <mxGeometry x="720" y="330" width="20" height="20" as="geometry" />
        </mxCell>
        <mxCell id="vs-8lvcjq1GL2Ei7vuz--111" style="edgeStyle=orthogonalEdgeStyle;rounded=0;orthogonalLoop=1;jettySize=auto;html=1;entryX=0.5;entryY=0;entryDx=0;entryDy=0;entryPerimeter=0;" edge="1" parent="vs-8lvcjq1GL2Ei7vuz--6" source="vs-8lvcjq1GL2Ei7vuz--35" target="vs-8lvcjq1GL2Ei7vuz--109">
          <mxGeometry relative="1" as="geometry" />
        </mxCell>
        <mxCell id="vs-8lvcjq1GL2Ei7vuz--5" value="Database Server&lt;br&gt;10.34.96.3" style="points=[[0,0],[0.25,0],[0.5,0],[0.75,0],[1,0],[1,0.25],[1,0.5],[1,0.75],[1,1],[0.75,1],[0.5,1],[0.25,1],[0,1],[0,0.75],[0,0.5],[0,0.25]];outlineConnect=0;gradientColor=none;html=1;whiteSpace=wrap;fontSize=12;fontStyle=0;container=1;pointerEvents=0;collapsible=0;recursiveResize=0;shape=mxgraph.aws4.group;grIcon=mxgraph.aws4.group_on_premise;strokeColor=#7D8998;fillColor=none;verticalAlign=top;align=left;spacingLeft=30;fontColor=#5A6C86;dashed=0;" vertex="1" parent="vs-8lvcjq1GL2Ei7vuz--3">
          <mxGeometry x="20" y="480" width="620" height="200" as="geometry" />
        </mxCell>
        <mxCell id="vs-8lvcjq1GL2Ei7vuz--66" value="Blog" style="sketch=0;outlineConnect=0;fontColor=#232F3E;gradientColor=none;fillColor=#C925D1;strokeColor=none;dashed=0;verticalLabelPosition=bottom;verticalAlign=top;align=center;html=1;fontSize=12;fontStyle=0;aspect=fixed;pointerEvents=1;shape=mxgraph.aws4.rds_mariadb_instance;" vertex="1" parent="vs-8lvcjq1GL2Ei7vuz--5">
          <mxGeometry x="40" y="110" width="40" height="40" as="geometry" />
        </mxCell>
        <mxCell id="vs-8lvcjq1GL2Ei7vuz--67" value="API" style="sketch=0;outlineConnect=0;fontColor=#232F3E;gradientColor=none;fillColor=#C925D1;strokeColor=none;dashed=0;verticalLabelPosition=bottom;verticalAlign=top;align=center;html=1;fontSize=12;fontStyle=0;aspect=fixed;pointerEvents=1;shape=mxgraph.aws4.rds_mariadb_instance;" vertex="1" parent="vs-8lvcjq1GL2Ei7vuz--5">
          <mxGeometry x="160" y="110" width="40" height="40" as="geometry" />
        </mxCell>
        <mxCell id="vs-8lvcjq1GL2Ei7vuz--68" value="Drive" style="sketch=0;outlineConnect=0;fontColor=#232F3E;gradientColor=none;fillColor=#C925D1;strokeColor=none;dashed=0;verticalLabelPosition=bottom;verticalAlign=top;align=center;html=1;fontSize=12;fontStyle=0;aspect=fixed;pointerEvents=1;shape=mxgraph.aws4.rds_mariadb_instance;" vertex="1" parent="vs-8lvcjq1GL2Ei7vuz--5">
          <mxGeometry x="280" y="110" width="40" height="40" as="geometry" />
        </mxCell>
        <mxCell id="vs-8lvcjq1GL2Ei7vuz--69" value="Sekai" style="sketch=0;outlineConnect=0;fontColor=#232F3E;gradientColor=none;fillColor=#C925D1;strokeColor=none;dashed=0;verticalLabelPosition=bottom;verticalAlign=top;align=center;html=1;fontSize=12;fontStyle=0;aspect=fixed;pointerEvents=1;shape=mxgraph.aws4.rds_mariadb_instance;" vertex="1" parent="vs-8lvcjq1GL2Ei7vuz--5">
          <mxGeometry x="400" y="110" width="40" height="40" as="geometry" />
        </mxCell>
        <mxCell id="vs-8lvcjq1GL2Ei7vuz--70" value="Wiki" style="sketch=0;outlineConnect=0;fontColor=#232F3E;gradientColor=none;fillColor=#C925D1;strokeColor=none;dashed=0;verticalLabelPosition=bottom;verticalAlign=top;align=center;html=1;fontSize=12;fontStyle=0;aspect=fixed;pointerEvents=1;shape=mxgraph.aws4.rds_mariadb_instance;" vertex="1" parent="vs-8lvcjq1GL2Ei7vuz--5">
          <mxGeometry x="520" y="110" width="40" height="40" as="geometry" />
        </mxCell>
        <mxCell id="vs-8lvcjq1GL2Ei7vuz--121" style="edgeStyle=orthogonalEdgeStyle;rounded=0;orthogonalLoop=1;jettySize=auto;html=1;" edge="1" parent="vs-8lvcjq1GL2Ei7vuz--5" target="vs-8lvcjq1GL2Ei7vuz--67">
          <mxGeometry relative="1" as="geometry">
            <mxPoint x="200" y="60" as="sourcePoint" />
            <Array as="points">
              <mxPoint x="180" y="60" />
            </Array>
          </mxGeometry>
        </mxCell>
        <mxCell id="vs-8lvcjq1GL2Ei7vuz--116" value="API DB" style="verticalLabelPosition=bottom;verticalAlign=top;html=1;shape=mxgraph.flowchart.on-page_reference;" vertex="1" parent="vs-8lvcjq1GL2Ei7vuz--5">
          <mxGeometry x="200" y="50" width="20" height="20" as="geometry" />
        </mxCell>
        <mxCell id="vs-8lvcjq1GL2Ei7vuz--122" style="edgeStyle=orthogonalEdgeStyle;rounded=0;orthogonalLoop=1;jettySize=auto;html=1;" edge="1" parent="vs-8lvcjq1GL2Ei7vuz--5" target="vs-8lvcjq1GL2Ei7vuz--68">
          <mxGeometry relative="1" as="geometry">
            <mxPoint x="320" y="60" as="sourcePoint" />
            <Array as="points">
              <mxPoint x="300" y="60" />
            </Array>
          </mxGeometry>
        </mxCell>
        <mxCell id="vs-8lvcjq1GL2Ei7vuz--117" value="Drive DB" style="verticalLabelPosition=bottom;verticalAlign=top;html=1;shape=mxgraph.flowchart.on-page_reference;" vertex="1" parent="vs-8lvcjq1GL2Ei7vuz--5">
          <mxGeometry x="320" y="50" width="20" height="20" as="geometry" />
        </mxCell>
        <mxCell id="vs-8lvcjq1GL2Ei7vuz--123" style="edgeStyle=orthogonalEdgeStyle;rounded=0;orthogonalLoop=1;jettySize=auto;html=1;" edge="1" parent="vs-8lvcjq1GL2Ei7vuz--5" target="vs-8lvcjq1GL2Ei7vuz--69">
          <mxGeometry relative="1" as="geometry">
            <mxPoint x="440" y="60" as="sourcePoint" />
            <Array as="points">
              <mxPoint x="420" y="60" />
            </Array>
          </mxGeometry>
        </mxCell>
        <mxCell id="vs-8lvcjq1GL2Ei7vuz--119" value="Sekai DB" style="verticalLabelPosition=bottom;verticalAlign=top;html=1;shape=mxgraph.flowchart.on-page_reference;" vertex="1" parent="vs-8lvcjq1GL2Ei7vuz--5">
          <mxGeometry x="440" y="50" width="20" height="20" as="geometry" />
        </mxCell>
        <mxCell id="vs-8lvcjq1GL2Ei7vuz--124" style="edgeStyle=orthogonalEdgeStyle;rounded=0;orthogonalLoop=1;jettySize=auto;html=1;" edge="1" parent="vs-8lvcjq1GL2Ei7vuz--5" target="vs-8lvcjq1GL2Ei7vuz--70">
          <mxGeometry relative="1" as="geometry">
            <mxPoint x="560" y="60" as="sourcePoint" />
            <Array as="points">
              <mxPoint x="540" y="60" />
            </Array>
          </mxGeometry>
        </mxCell>
        <mxCell id="vs-8lvcjq1GL2Ei7vuz--120" value="Wiki DB" style="verticalLabelPosition=bottom;verticalAlign=top;html=1;shape=mxgraph.flowchart.on-page_reference;" vertex="1" parent="vs-8lvcjq1GL2Ei7vuz--5">
          <mxGeometry x="560" y="50" width="20" height="20" as="geometry" />
        </mxCell>
        <mxCell id="vs-8lvcjq1GL2Ei7vuz--126" style="edgeStyle=orthogonalEdgeStyle;rounded=0;orthogonalLoop=1;jettySize=auto;html=1;" edge="1" parent="vs-8lvcjq1GL2Ei7vuz--5" target="vs-8lvcjq1GL2Ei7vuz--66">
          <mxGeometry relative="1" as="geometry">
            <mxPoint x="80" y="60" as="sourcePoint" />
            <Array as="points">
              <mxPoint x="60" y="60" />
            </Array>
          </mxGeometry>
        </mxCell>
        <mxCell id="vs-8lvcjq1GL2Ei7vuz--125" value="Blog DB" style="verticalLabelPosition=bottom;verticalAlign=top;html=1;shape=mxgraph.flowchart.on-page_reference;" vertex="1" parent="vs-8lvcjq1GL2Ei7vuz--5">
          <mxGeometry x="80" y="50" width="20" height="20" as="geometry" />
        </mxCell>
        <mxCell id="vs-8lvcjq1GL2Ei7vuz--62" value="Data Storage" style="points=[[0,0],[0.25,0],[0.5,0],[0.75,0],[1,0],[1,0.25],[1,0.5],[1,0.75],[1,1],[0.75,1],[0.5,1],[0.25,1],[0,1],[0,0.75],[0,0.5],[0,0.25]];outlineConnect=0;gradientColor=none;html=1;whiteSpace=wrap;fontSize=12;fontStyle=0;container=1;pointerEvents=0;collapsible=0;recursiveResize=0;shape=mxgraph.aws4.group;grIcon=mxgraph.aws4.group_on_premise;strokeColor=#7D8998;fillColor=none;verticalAlign=top;align=left;spacingLeft=30;fontColor=#5A6C86;dashed=0;" vertex="1" parent="vs-8lvcjq1GL2Ei7vuz--3">
          <mxGeometry x="800" y="480" width="260" height="200" as="geometry" />
        </mxCell>
        <mxCell id="vs-8lvcjq1GL2Ei7vuz--63" value="Drive" style="sketch=0;outlineConnect=0;fontColor=#232F3E;gradientColor=none;fillColor=#7AA116;strokeColor=none;dashed=0;verticalLabelPosition=bottom;verticalAlign=top;align=center;html=1;fontSize=12;fontStyle=0;aspect=fixed;pointerEvents=1;shape=mxgraph.aws4.bucket;" vertex="1" parent="vs-8lvcjq1GL2Ei7vuz--62">
          <mxGeometry x="50" y="79.2" width="40" height="41.6" as="geometry" />
        </mxCell>
        <mxCell id="vs-8lvcjq1GL2Ei7vuz--134" value="Auto Snapshot&lt;div&gt;Backup&lt;/div&gt;" style="sketch=0;outlineConnect=0;fontColor=#232F3E;gradientColor=none;fillColor=#7AA116;strokeColor=none;dashed=0;verticalLabelPosition=bottom;verticalAlign=top;align=center;html=1;fontSize=12;fontStyle=0;aspect=fixed;pointerEvents=1;shape=mxgraph.aws4.bucket;" vertex="1" parent="vs-8lvcjq1GL2Ei7vuz--62">
          <mxGeometry x="180" y="79.2" width="40" height="41.6" as="geometry" />
        </mxCell>
        <mxCell id="vs-8lvcjq1GL2Ei7vuz--114" style="edgeStyle=orthogonalEdgeStyle;rounded=0;orthogonalLoop=1;jettySize=auto;html=1;" edge="1" parent="vs-8lvcjq1GL2Ei7vuz--3" source="vs-8lvcjq1GL2Ei7vuz--112" target="vs-8lvcjq1GL2Ei7vuz--63">
          <mxGeometry relative="1" as="geometry" />
        </mxCell>
        <mxCell id="vs-8lvcjq1GL2Ei7vuz--112" value="Drive S3" style="verticalLabelPosition=bottom;verticalAlign=top;html=1;shape=mxgraph.flowchart.on-page_reference;" vertex="1" parent="vs-8lvcjq1GL2Ei7vuz--3">
          <mxGeometry x="740" y="510" width="20" height="20" as="geometry" />
        </mxCell>
        <mxCell id="vs-8lvcjq1GL2Ei7vuz--145" style="edgeStyle=orthogonalEdgeStyle;rounded=0;orthogonalLoop=1;jettySize=auto;html=1;" edge="1" parent="vs-8lvcjq1GL2Ei7vuz--3" source="vs-8lvcjq1GL2Ei7vuz--138" target="vs-8lvcjq1GL2Ei7vuz--134">
          <mxGeometry relative="1" as="geometry">
            <Array as="points">
              <mxPoint x="940" y="630" />
              <mxPoint x="940" y="580" />
            </Array>
          </mxGeometry>
        </mxCell>
        <mxCell id="vs-8lvcjq1GL2Ei7vuz--138" value="Backup" style="verticalLabelPosition=bottom;verticalAlign=top;html=1;shape=mxgraph.flowchart.on-page_reference;" vertex="1" parent="vs-8lvcjq1GL2Ei7vuz--3">
          <mxGeometry x="690" y="620" width="20" height="20" as="geometry" />
        </mxCell>
        <mxCell id="vs-8lvcjq1GL2Ei7vuz--143" style="edgeStyle=orthogonalEdgeStyle;rounded=0;orthogonalLoop=1;jettySize=auto;html=1;exitX=1;exitY=0.75;exitDx=0;exitDy=0;entryX=0;entryY=0.5;entryDx=0;entryDy=0;entryPerimeter=0;" edge="1" parent="vs-8lvcjq1GL2Ei7vuz--3" source="vs-8lvcjq1GL2Ei7vuz--5" target="vs-8lvcjq1GL2Ei7vuz--138">
          <mxGeometry relative="1" as="geometry" />
        </mxCell>
        <mxCell id="vs-8lvcjq1GL2Ei7vuz--144" style="edgeStyle=orthogonalEdgeStyle;rounded=0;orthogonalLoop=1;jettySize=auto;html=1;exitX=0.75;exitY=1;exitDx=0;exitDy=0;entryX=0.5;entryY=0;entryDx=0;entryDy=0;entryPerimeter=0;" edge="1" parent="vs-8lvcjq1GL2Ei7vuz--3" source="vs-8lvcjq1GL2Ei7vuz--6" target="vs-8lvcjq1GL2Ei7vuz--138">
          <mxGeometry relative="1" as="geometry">
            <Array as="points">
              <mxPoint x="800" y="460" />
              <mxPoint x="700" y="460" />
            </Array>
          </mxGeometry>
        </mxCell>
      </root>
    </mxGraphModel>
  </diagram>
</mxfile>
